<?xml version="1.0" standalone="no"?>
<!DOCTYPE svg PUBLIC "-//W3C//DTD SVG 1.1//EN" "http://www.w3.org/Graphics/SVG/1.1/DTD/svg11.dtd">
<svg t="1670849870179"
    class="icon" viewBox="0 0 1024 1024" version="1.1" xmlns="http://www.w3.org/2000/svg"
    p-id="2942"
    xmlns:xlink="http://www.w3.org/1999/xlink">
    <path
        d="M512 832c-179.2 0-320-140.8-320-320s140.8-320 320-320 320 140.8 320 320S691.2 832 512 832M512 896c211.2 0 384-172.8 384-384s-172.8-384-384-384S128 300.8 128 512 300.8 896 512 896L512 896zM800 512c0-160-128-288-288-288l0 576C672 800 800 672 800 512zM480 608 243.2 608C249.6 620.8 256 640 262.4 652.8l217.6 0L480 608zM480 416 480 371.2 262.4 371.2C256 384 249.6 403.2 243.2 416L480 416zM480 300.8 480 256 384 256C358.4 268.8 339.2 281.6 320 300.8L480 300.8zM224 537.6l256 0L480 492.8l-256 0c0 6.4 0 12.8 0 19.2S224 524.8 224 537.6zM480 723.2 320 723.2c19.2 19.2 38.4 32 64 44.8l96 0L480 723.2z"
        p-id="2943"></path>
</svg>